<?xml version="1.0" encoding="UTF-8" standalone="no"?>
<!-- Created with Inkscape (http://www.inkscape.org/) -->

<svg
   width="512"
   height="512"
   viewBox="0 0 135.46666 135.46667"
   version="1.1"
   id="svg1"
   inkscape:version="1.3.2 (091e20e, 2023-11-25, custom)"
   sodipodi:docname="icon.svg"
   xml:space="preserve"
   inkscape:export-filename="icon_plain.svg"
   inkscape:export-xdpi="96"
   inkscape:export-ydpi="96"
   xmlns:inkscape="http://www.inkscape.org/namespaces/inkscape"
   xmlns:sodipodi="http://sodipodi.sourceforge.net/DTD/sodipodi-0.dtd"
   xmlns="http://www.w3.org/2000/svg"
   xmlns:svg="http://www.w3.org/2000/svg"><sodipodi:namedview
     id="namedview1"
     pagecolor="#000000"
     bordercolor="#000000"
     borderopacity="0.25"
     inkscape:showpageshadow="2"
     inkscape:pageopacity="0.0"
     inkscape:pagecheckerboard="0"
     inkscape:deskcolor="#d1d1d1"
     inkscape:document-units="mm"
     inkscape:zoom="1.0242632"
     inkscape:cx="213.81223"
     inkscape:cy="287.52375"
     inkscape:window-width="1920"
     inkscape:window-height="1009"
     inkscape:window-x="-8"
     inkscape:window-y="-8"
     inkscape:window-maximized="1"
     inkscape:current-layer="layer2" /><defs
     id="defs1" /><g
     inkscape:groupmode="layer"
     id="layer2"
     inkscape:label="Layer 2"><path
       d="m 76.136941,48.079767 8.669248,-14.321662 3.812877,2.122469 -8.909655,14.492254 z"
       style="display:inline;fill:#ffffff;fill-opacity:1"
       id="line_right"
       inkscape:label="line right" /><path
       d="m 63.330211,29.540436 h 4.233333 v 16.933332 h -4.233333 z"
       style="display:inline;fill:#ffffff;fill-opacity:1"
       id="line_middle"
       inkscape:label="line middle" /><path
       d="m 41.987699,35.886687 3.935804,-2.146481 8.761281,14.27954 -3.521167,2.224689 z"
       style="display:inline;fill:#ffffff;fill-opacity:1"
       id="line_left"
       inkscape:label="line left" /><ellipse
       style="display:inline;fill:none;stroke:#ffffff;stroke-width:4.8;stroke-dasharray:none;stroke-opacity:1"
       id="whistle_ring"
       cx="105.54074"
       cy="80.488708"
       rx="6.3469639"
       ry="6.3469625" /><path
       d="m 16.621834,54.8885 v 13.151271 l 42.467721,8.950184 0.09133,-22.192783 z"
       style="display:inline;fill:#ffffff;stroke-width:4.50001;fill-opacity:1"
       id="whistle_nossle"
       sodipodi:nodetypes="ccccc" /><path
       id="whistle_circle"
       style="display:inline;fill:#ffffff;stroke-width:0;fill-opacity:1;stroke:none;stroke-dasharray:none"
       d="m 101.60546,80.530136 c 0,14.010233 -11.45976,25.367774 -25.596091,25.367774 -14.136333,0 -25.596096,-11.357539 -25.596096,-25.367774 0,-7.005118 0.976793,-17.805939 7.496923,-17.937726 l 13.823784,-0.07131 -0.0016,-7.429454 5.69254,-0.02061 c 3.53406,-0.0128 3.749325,-1.120408 6.948502,0.0829 1.555886,0.585216 4.584337,3.534082 5.946077,4.443554 10.175281,6.79582 11.358731,20.923316 11.285921,20.93265 l 2e-5,-2e-6 z"
       sodipodi:nodetypes="ssssccsssscs" /><path
       id="ball_line_top"
       style="fill:#ffffff;fill-opacity:1;stroke-width:4.50001"
       d="M 123.43035,15.936807 99.632732,39.513944 c -2.855328,2.828875 -7.147978,-0.694232 -4.196997,-3.678459 L 118.56712,12.443497 c 0.5106,-0.516358 5.73998,2.624682 4.86323,3.49331 z"
       sodipodi:nodetypes="sssss" /><path
       id="ball_line_bottom"
       style="fill:#ffffff;fill-opacity:1;stroke-width:4.50001"
       d="M 11.710644,119.37557 35.45277,95.742554 c 2.848671,-2.835585 7.149591,0.677424 4.205633,3.668586 l -23.076329,23.4463 c -0.509385,0.51755 -5.746135,-2.61119 -4.87143,-3.48187 z"
       sodipodi:nodetypes="sssss" /><path
       id="ball"
       style="display:inline;fill:none;fill-opacity:0.883268;stroke:#ffffff;stroke-width:6;stroke-dasharray:none;stroke-opacity:1"
       d="M 107.32259,96.454974 C 95.493744,110.14237 78.88694,119.86588 61.959184,126.2469 47.482096,131.70413 20.980813,131.97315 13.174101,123.85099 1.8446443,112.06373 5.0574483,90.914685 8.7976438,74.999068 12.886088,57.601552 23.690391,41.393587 36.865722,29.318838 48.822605,18.360758 64.406878,10.358619 80.380573,7.5501245 94.257187,5.1103386 112.19835,2.6791806 122.36601,12.432729 c 9.39247,9.00993 7.92369,25.674059 6.11821,38.563493 -2.31861,16.552707 -10.23264,32.812597 -21.16163,45.458752 z"
       sodipodi:nodetypes="aasaaaaaa" /></g></svg>
