<?xml version="1.0" encoding="UTF-8" standalone="no"?>
<!-- Created with Inkscape (http://www.inkscape.org/) -->

<svg
   width="108"
   height="108"
   viewBox="0 0 108 108"
   version="1.1"
   id="svg1"
   inkscape:version="1.4 (86a8ad7, 2024-10-11)"
   sodipodi:docname="icon_108.svg"
   xml:space="preserve"
   inkscape:export-filename="icon_plain.svg"
   inkscape:export-xdpi="96"
   inkscape:export-ydpi="96"
   xmlns:inkscape="http://www.inkscape.org/namespaces/inkscape"
   xmlns:sodipodi="http://sodipodi.sourceforge.net/DTD/sodipodi-0.dtd"
   xmlns="http://www.w3.org/2000/svg"
   xmlns:svg="http://www.w3.org/2000/svg"><sodipodi:namedview
     id="namedview1"
     pagecolor="#000000"
     bordercolor="#000000"
     borderopacity="0.25"
     inkscape:showpageshadow="2"
     inkscape:pageopacity="0.0"
     inkscape:pagecheckerboard="false"
     inkscape:deskcolor="#d1d1d1"
     inkscape:document-units="px"
     inkscape:zoom="5.7941076"
     inkscape:cx="35.639656"
     inkscape:cy="64.807219"
     inkscape:window-width="2560"
     inkscape:window-height="1377"
     inkscape:window-x="2552"
     inkscape:window-y="-8"
     inkscape:window-maximized="1"
     inkscape:current-layer="layer2"
     showborder="false" /><defs
     id="defs1" /><g
     inkscape:groupmode="layer"
     id="layer2"
     inkscape:label="Layer 2"><path
       d="m 57.214364,46.472636 3.313813,-5.474451 1.457471,0.811314 -3.40571,5.539658 z"
       style="display:inline;fill:#ffffff;fill-opacity:1;stroke-width:0;stroke-dasharray:none"
       id="line_right"
       inkscape:label="line right" /><path
       d="m 52.319003,39.385983 h 1.618187 v 6.47276 h -1.618187 z"
       style="display:inline;fill:#ffffff;fill-opacity:1;stroke-width:0;stroke-dasharray:none"
       id="line_middle"
       inkscape:label="line middle" /><path
       d="m 44.160842,41.811836 1.504458,-0.820491 3.348996,5.458348 -1.345964,0.850385 z"
       style="display:inline;fill:#ffffff;fill-opacity:1;stroke-width:0;stroke-dasharray:none"
       id="line_left"
       inkscape:label="line left" /><ellipse
       style="display:inline;fill:none;stroke:#ffffff;stroke-width:1.83472;stroke-dasharray:none;stroke-opacity:1"
       id="whistle_ring"
       cx="68.453949"
       cy="58.860947"
       rx="2.4261224"
       ry="2.4261241" /><path
       d="m 34.464759,49.075271 v 5.027067 l 16.233253,3.421206 0.03491,-8.483186 z"
       style="display:inline;fill:#ffffff;fill-opacity:1;stroke-width:0;stroke-dasharray:none"
       id="whistle_nossle"
       sodipodi:nodetypes="ccccc" /><path
       id="whistle_circle"
       style="display:inline;fill:#ffffff;fill-opacity:1;stroke:none;stroke-width:0;stroke-dasharray:none"
       d="m 66.949688,58.876778 c 0,5.355407 -4.380487,9.696823 -9.784089,9.696823 -5.403603,0 -9.784085,-4.341414 -9.784085,-9.696823 0,-2.677705 0.373376,-6.806314 2.86569,-6.856689 l 5.28413,-0.02727 -5.49e-4,-2.839907 2.175969,-0.0079 c 1.35089,-0.005 1.433177,-0.428274 2.656061,0.03168 0.594735,0.223699 1.752356,1.350898 2.272883,1.698544 3.889493,2.597702 4.341865,7.997932 4.314033,8.001499 h 1e-5 z"
       sodipodi:nodetypes="ssssccsssscs" /><path
       id="ball_line_top"
       style="fill:#ffffff;fill-opacity:1;stroke-width:0;stroke-dasharray:none"
       d="m 75.292237,34.185999 -9.096623,9.012353 c -1.091448,1.081337 -2.732309,-0.265367 -1.604299,-1.406088 l 8.841952,-8.94158 c 0.19517,-0.197379 2.194105,1.003282 1.85897,1.335315 z"
       sodipodi:nodetypes="sssss" /><path
       id="ball_line_bottom"
       style="fill:#ffffff;fill-opacity:1;stroke-width:0;stroke-dasharray:none"
       d="m 32.587461,73.725433 9.07541,-9.033715 c 1.088901,-1.083901 2.732926,0.258948 1.6076,1.402318 l -8.820908,8.962339 c -0.194714,0.19782 -2.196459,-0.998125 -1.862102,-1.330942 z"
       sodipodi:nodetypes="sssss" /><path
       id="ball"
       style="display:inline;fill:none;stroke:#ffffff;stroke-width:2.29395;stroke-dasharray:none;stroke-opacity:1"
       d="m 69.135057,64.964041 c -4.521569,5.232004 -10.869509,8.948811 -17.340131,11.387956 -5.533853,2.086022 -15.663949,2.188857 -18.64806,-0.915838 -4.330677,-4.505675 -3.102585,-12.589892 -1.672899,-18.67363 1.562806,-6.650196 5.692743,-12.845681 10.729004,-17.46125 4.570508,-4.188725 10.527586,-7.24754 16.633518,-8.321086 5.304326,-0.932606 12.162323,-1.861916 16.048904,1.866374 3.590263,3.444044 3.028825,9.813902 2.33868,14.740883 -0.886285,6.327264 -3.911418,12.542604 -8.089016,17.376591 z"
       sodipodi:nodetypes="aasaaaaaa" /></g></svg>
