<?xml version="1.0" encoding="UTF-8" standalone="no"?>
<!-- Created with Inkscape (http://www.inkscape.org/) -->

<svg
   width="512"
   height="512"
   viewBox="0 0 512 512"
   version="1.1"
   id="svg1"
   inkscape:version="1.4 (86a8ad7, 2024-10-11)"
   sodipodi:docname="icon.svg"
   xml:space="preserve"
   inkscape:export-filename="icon_plain.svg"
   inkscape:export-xdpi="96"
   inkscape:export-ydpi="96"
   xmlns:inkscape="http://www.inkscape.org/namespaces/inkscape"
   xmlns:sodipodi="http://sodipodi.sourceforge.net/DTD/sodipodi-0.dtd"
   xmlns="http://www.w3.org/2000/svg"
   xmlns:svg="http://www.w3.org/2000/svg"><sodipodi:namedview
     id="namedview1"
     pagecolor="#000000"
     bordercolor="#000000"
     borderopacity="0.25"
     inkscape:showpageshadow="2"
     inkscape:pageopacity="0.0"
     inkscape:pagecheckerboard="false"
     inkscape:deskcolor="#d1d1d1"
     inkscape:document-units="px"
     inkscape:zoom="1.0242632"
     inkscape:cx="215.2767"
     inkscape:cy="287.52375"
     inkscape:window-width="2560"
     inkscape:window-height="1377"
     inkscape:window-x="2552"
     inkscape:window-y="-8"
     inkscape:window-maximized="1"
     inkscape:current-layer="layer2"
     showborder="false" /><defs
     id="defs1" /><g
     inkscape:groupmode="layer"
     id="layer2"
     inkscape:label="Layer 2"><path
       d="m 288.46991,181.76055 32.76563,-54.12929 14.41087,8.02195 -33.67426,54.77405 z"
       style="display:inline;fill:#ffffff;fill-opacity:1;stroke-width:3.77953"
       id="line_right"
       inkscape:label="line right" /><path
       d="m 240.06655,111.69041 h 15.99999 v 64.0002 h -15.99999 z"
       style="display:inline;fill:#ffffff;fill-opacity:1;stroke-width:3.77953"
       id="line_middle"
       inkscape:label="line middle" /><path
       d="m 159.402,135.67632 14.87547,-8.11271 33.11348,53.97009 -13.30834,8.4083 z"
       style="display:inline;fill:#ffffff;fill-opacity:1;stroke-width:3.77953"
       id="line_left"
       inkscape:label="line left" /><ellipse
       style="display:inline;fill:none;stroke:#ffffff;stroke-width:18.1418;stroke-dasharray:none;stroke-opacity:1"
       id="whistle_ring"
       cx="399.60229"
       cy="304.25143"
       rx="23.988508"
       ry="23.988596" /><path
       d="m 63.531082,207.49443 v 49.70575 l 160.507808,33.82758 0.34518,-83.87851 z"
       style="display:inline;fill:#ffffff;fill-opacity:1;stroke-width:17.0079"
       id="whistle_nossle"
       sodipodi:nodetypes="ccccc" /><path
       id="whistle_circle"
       style="display:inline;fill:#ffffff;fill-opacity:1;stroke:none;stroke-width:0;stroke-dasharray:none"
       d="m 384.72882,304.40801 c 0,52.95222 -43.31246,95.87853 -96.74108,95.87853 -53.42862,0 -96.74108,-42.92628 -96.74108,-95.87853 0,-26.47612 3.69182,-67.29825 28.33481,-67.79635 l 52.24734,-0.26952 -0.006,-28.07991 21.5151,-0.0779 c 13.35706,-0.0484 14.17066,-4.23463 26.26203,0.31332 5.88051,2.21185 17.32662,13.35721 22.47335,16.79459 38.45773,25.68507 42.93062,79.08051 42.65543,79.11579 l 8e-5,-10e-6 z"
       sodipodi:nodetypes="ssssccsssscs" /><path
       id="ball_line_top"
       style="fill:#ffffff;fill-opacity:1;stroke-width:17.0079"
       d="m 467.21652,60.274952 -89.94367,89.110728 c -10.79179,10.69185 -27.01598,-2.62388 -15.86269,-13.90288 l 87.42566,-88.410951 c 1.92984,-1.951595 21.69441,9.92009 18.3807,13.203103 z"
       sodipodi:nodetypes="sssss" /><path
       id="ball_line_bottom"
       style="fill:#ffffff;fill-opacity:1;stroke-width:17.0079"
       d="m 44.969118,451.22588 89.733952,-89.32193 c 10.76662,-10.71721 27.02206,2.56034 15.8953,13.86558 l -87.217562,88.61626 c -1.925233,1.9561 -21.717661,-9.86914 -18.41169,-13.15991 z"
       sodipodi:nodetypes="sssss" /><path
       id="ball"
       style="display:inline;fill:none;fill-opacity:0.883268;stroke:#ffffff;stroke-width:22.6772;stroke-dasharray:none;stroke-opacity:1"
       d="M 406.33683,364.59657 C 361.62941,416.32864 298.8636,453.07903 234.88472,477.19638 180.16821,497.8222 80.005951,498.83897 50.500288,468.14095 7.6803273,423.5905 19.823199,343.65683 33.959361,283.50312 49.411739,217.74851 90.24687,156.48987 140.04336,110.85287 185.2347,69.436375 244.13584,39.191971 304.50882,28.577153 c 52.447,-9.221267 120.25606,-18.409927 158.68502,18.453998 35.49906,34.05339 29.94775,97.036129 23.1239,145.752259 -8.76324,62.56161 -38.67451,124.01651 -79.98091,171.81316 z"
       sodipodi:nodetypes="aasaaaaaa" /></g></svg>
