<?xml version="1.0" encoding="UTF-8" standalone="no"?>
<!-- Created with Inkscape (http://www.inkscape.org/) -->

<svg
   width="108"
   height="108"
   viewBox="0 0 108 108"
   version="1.1"
   id="svg1"
   inkscape:version="1.3.2 (091e20e, 2023-11-25, custom)"
   sodipodi:docname="icon_108.svg"
   xml:space="preserve"
   inkscape:export-filename="icon_plain.svg"
   inkscape:export-xdpi="96"
   inkscape:export-ydpi="96"
   xmlns:inkscape="http://www.inkscape.org/namespaces/inkscape"
   xmlns:sodipodi="http://sodipodi.sourceforge.net/DTD/sodipodi-0.dtd"
   xmlns="http://www.w3.org/2000/svg"
   xmlns:svg="http://www.w3.org/2000/svg"><sodipodi:namedview
     id="namedview1"
     pagecolor="#000000"
     bordercolor="#000000"
     borderopacity="0.25"
     inkscape:showpageshadow="2"
     inkscape:pageopacity="0.0"
     inkscape:pagecheckerboard="0"
     inkscape:deskcolor="#d1d1d1"
     inkscape:document-units="mm"
     inkscape:zoom="5.7941076"
     inkscape:cx="35.72595"
     inkscape:cy="64.807219"
     inkscape:window-width="1920"
     inkscape:window-height="1009"
     inkscape:window-x="-8"
     inkscape:window-y="-8"
     inkscape:window-maximized="1"
     inkscape:current-layer="layer2" /><defs
     id="defs1" /><g
     inkscape:groupmode="layer"
     id="layer2"
     inkscape:label="Layer 2"><path
       d="m 58.628726,43.160597 4.771895,-7.883209 2.09876,1.168292 -4.904227,7.977108 z"
       style="display:inline;fill:#ffffff;fill-opacity:1;stroke-width:0;stroke-dasharray:none"
       id="line_right"
       inkscape:label="line right" /><path
       d="m 51.579397,32.955817 h 2.330194 v 9.320775 h -2.330194 z"
       style="display:inline;fill:#ffffff;fill-opacity:1;stroke-width:0;stroke-dasharray:none"
       id="line_middle"
       inkscape:label="line middle" /><path
       d="m 39.831634,36.449045 2.166421,-1.181508 4.822559,7.860023 -1.938188,1.224555 z"
       style="display:inline;fill:#ffffff;fill-opacity:1;stroke-width:0;stroke-dasharray:none"
       id="line_left"
       inkscape:label="line left" /><ellipse
       style="display:inline;fill:none;stroke:#ffffff;stroke-width:2.642;stroke-dasharray:none;stroke-opacity:1"
       id="whistle_ring"
       cx="74.813744"
       cy="60.99976"
       rx="3.4936197"
       ry="3.493619" /><path
       d="m 25.86926,46.908391 v 7.238978 l 23.37591,4.926538 0.05027,-12.215788 z"
       style="display:inline;fill:#ffffff;fill-opacity:1;stroke-width:0;stroke-dasharray:none"
       id="whistle_nossle"
       sodipodi:nodetypes="ccccc" /><path
       id="whistle_circle"
       style="display:inline;fill:#ffffff;fill-opacity:1;stroke:none;stroke-width:0;stroke-dasharray:none"
       d="m 72.647607,61.022563 c 0,7.711787 -6.307907,13.963427 -14.089102,13.963427 -7.781197,0 -14.089099,-6.251638 -14.089099,-13.963427 0,-3.855895 0.537662,-9.801092 4.126599,-9.873633 l 7.609154,-0.03927 -7.91e-4,-4.089466 3.133399,-0.01132 c 1.945285,-0.0072 2.063778,-0.616716 3.824732,0.04562 0.85642,0.322126 2.523397,1.945293 3.272955,2.445905 5.600876,3.74069 6.252293,11.517022 6.212215,11.522157 h 1.4e-5 z"
       sodipodi:nodetypes="ssssccsssscs" /><path
       id="ball_line_top"
       style="fill:#ffffff;fill-opacity:1;stroke-width:0;stroke-dasharray:none"
       d="M 84.660891,25.467842 71.561739,38.445629 c -1.571687,1.557125 -3.934529,-0.38213 -2.310193,-2.024768 L 81.983972,23.544986 c 0.281044,-0.284225 3.159512,1.444728 2.676919,1.922856 z"
       sodipodi:nodetypes="sssss" /><path
       id="ball_line_bottom"
       style="fill:#ffffff;fill-opacity:1;stroke-width:0;stroke-dasharray:none"
       d="m 23.165947,82.404627 13.068605,-13.00855 c 1.568019,-1.560817 3.935418,0.372885 2.314946,2.019338 L 25.847376,84.321183 c -0.280386,0.284861 -3.162902,-1.437301 -2.681429,-1.916556 z"
       sodipodi:nodetypes="sssss" /><path
       id="ball"
       style="display:inline;fill:none;stroke:#ffffff;stroke-width:3.30328989;stroke-dasharray:none;stroke-opacity:1"
       d="M 75.794542,69.788222 C 69.283475,77.322308 60.142432,82.674511 50.824726,86.186878 42.85597,89.190751 28.268615,89.338833 23.971492,84.868073 17.73531,78.3799 19.503765,66.738628 21.562516,57.978045 23.812958,48.401763 29.760074,39.480262 37.012296,32.833842 43.593836,26.80208 52.172036,22.397387 60.96459,20.85148 c 7.638236,-1.342954 17.513762,-2.68116 23.110443,2.687579 5.169986,4.959423 4.361515,14.132017 3.367703,21.22687 -1.276251,9.111262 -5.632447,18.061351 -11.648194,25.022293 z"
       sodipodi:nodetypes="aasaaaaaa" /></g></svg>
