<?xml version="1.0" encoding="UTF-8" standalone="no"?>
<!--
  - Copyright 2020-2026 Bart Vullings <dev@windkracht8.com>
  - This file is part of RugbyRefereeWatch
  - RugbyRefereeWatch is free software: you can redistribute it and/or modify it under the terms of the GNU General Public License as published by the Free Software Foundation, either version 3 of the License, or (at your option) any later version.
  - RugbyRefereeWatch is distributed in the hope that it will be useful, but WITHOUT ANY WARRANTY; without even the implied warranty of MERCHANTABILITY or FITNESS FOR A PARTICULAR PURPOSE.  See the GNU General Public License for more details.
  - You should have received a copy of the GNU General Public License along with this program.  If not, see <http://www.gnu.org/licenses/>.
  -->
<svg
   width="512"
   height="512"
   viewBox="0 0 512 512"
   version="1.1"
   id="svg1"
   inkscape:version="1.4 (86a8ad7, 2024-10-11)"
   sodipodi:docname="icon.svg"
   xml:space="preserve"
   inkscape:export-filename="icon_plain.png"
   inkscape:export-xdpi="96"
   inkscape:export-ydpi="96"
   xmlns:inkscape="http://www.inkscape.org/namespaces/inkscape"
   xmlns:sodipodi="http://sodipodi.sourceforge.net/DTD/sodipodi-0.dtd"
   xmlns="http://www.w3.org/2000/svg"
   xmlns:svg="http://www.w3.org/2000/svg"><sodipodi:namedview
     id="namedview1"
     pagecolor="#000000"
     bordercolor="#000000"
     borderopacity="0.25"
     inkscape:showpageshadow="2"
     inkscape:pageopacity="0.0"
     inkscape:pagecheckerboard="false"
     inkscape:deskcolor="#d1d1d1"
     inkscape:document-units="px"
     inkscape:zoom="1.0242632"
     inkscape:cx="216.25301"
     inkscape:cy="287.52375"
     inkscape:window-width="2560"
     inkscape:window-height="1369"
     inkscape:window-x="2552"
     inkscape:window-y="-8"
     inkscape:window-maximized="1"
     inkscape:current-layer="svg1"
     showborder="false"
     inkscape:export-bgcolor="#000000ff" /><defs
     id="defs1" /><g
     inkscape:groupmode="layer"
     id="layer2"
     inkscape:label="Layer 2"><path
       d="m 281.198,198.00626 25.51038,-42.14347 11.21989,6.24565 -26.21782,42.64546 z"
       style="display:inline;fill:#ffffff;fill-opacity:1;stroke-width:2.94263"
       id="line_right"
       inkscape:label="line right" /><path
       d="m 243.51252,143.45172 h 12.45714 v 49.82866 h -12.45714 z"
       style="display:inline;fill:#ffffff;fill-opacity:1;stroke-width:2.94263"
       id="line_middle"
       inkscape:label="line middle" /><path
       d="m 180.70941,162.12644 11.58161,-6.31632 25.78121,42.01952 -10.36149,6.54645 z"
       style="display:inline;fill:#ffffff;fill-opacity:1;stroke-width:2.94263"
       id="line_left"
       inkscape:label="line left" /><ellipse
       style="display:inline;fill:none;stroke:#ffffff;stroke-width:14.1247;stroke-dasharray:none;stroke-opacity:1"
       id="whistle_ring"
       cx="367.7225"
       cy="293.37405"
       rx="18.676767"
       ry="18.676813" /><path
       d="m 106.06705,218.04189 v 38.69943 l 124.96679,26.33716 0.26875,-65.30533 z"
       style="display:inline;fill:#ffffff;fill-opacity:1;stroke-width:13.2419"
       id="whistle_nossle"
       sodipodi:nodetypes="ccccc" /><path
       id="whistle_circle"
       style="display:inline;fill:#ffffff;fill-opacity:1;stroke:none;stroke-width:0;stroke-dasharray:none"
       d="m 356.14243,293.49595 c 0,41.22703 -33.72184,74.64819 -75.31984,74.64819 -41.598,0 -75.31984,-33.42114 -75.31984,-74.64819 0,-20.61353 2.87434,-52.39644 22.06067,-52.78424 l 40.67829,-0.20984 -0.005,-21.86219 16.75104,-0.0607 c 10.39943,-0.0377 11.03287,-3.29695 20.44687,0.24394 4.57839,1.72209 13.49001,10.39954 17.49711,13.07577 29.94209,19.99764 33.42455,61.56976 33.2103,61.59723 l 6e-5,-1e-5 z"
       sodipodi:nodetypes="ssssccsssscs" /><path
       id="ball_line_top"
       style="fill:#ffffff;fill-opacity:1;stroke-width:13.2419"
       d="m 420.365,103.42116 -70.02757,69.37898 c -8.40218,8.32436 -21.03387,-2.04288 -12.35024,-10.82437 l 68.06712,-68.834158 c 1.50252,-1.519454 16.89065,7.723488 14.31069,10.279548 z"
       sodipodi:nodetypes="sssss" /><path
       id="ball_line_bottom"
       style="fill:#ffffff;fill-opacity:1;stroke-width:13.2419"
       d="m 91.615227,407.804 69.864293,-69.54341 c 8.38259,-8.34411 21.03861,1.99341 12.37563,10.79533 l -67.9051,68.994 C 104.45112,419.57288 89.041293,410.3661 91.615227,407.804 Z"
       sodipodi:nodetypes="sssss" /><path
       id="ball"
       style="display:inline;fill:none;fill-opacity:0.883268;stroke:#ffffff;stroke-width:17.6558;stroke-dasharray:none;stroke-opacity:1"
       d="M 372.96581,340.35698 C 338.15789,380.63405 289.29023,409.24681 239.4781,428.02387 196.87738,444.08253 118.89391,444.87415 95.921638,420.97358 62.583239,386.28791 72.037333,324.05392 83.043345,277.22002 c 12.03078,-51.1946 43.823855,-98.88877 82.593975,-134.42038 35.18469,-32.24566 81.04343,-55.793068 128.04811,-64.057452 40.83374,-7.179406 93.62794,-14.333425 123.54763,14.367738 27.63856,26.512964 23.31647,75.549464 18.00362,113.478404 -6.82281,48.70862 -30.11088,96.55559 -62.27087,133.76865 z"
       sodipodi:nodetypes="aasaaaaaa" /></g></svg>
