<!--
  ~ Copyright 2020-2025 Bart Vullings <dev@windkracht8.com>
  ~ This file is part of RugbyRefereeWatch
  ~ RugbyRefereeWatch is free software: you can redistribute it and/or modify it under the terms of the GNU General Public License as published by the Free Software Foundation, either version 3 of the License, or (at your option) any later version.
  ~ RugbyRefereeWatch is distributed in the hope that it will be useful, but WITHOUT ANY WARRANTY; without even the implied warranty of MERCHANTABILITY or FITNESS FOR A PARTICULAR PURPOSE.  See the GNU General Public License for more details.
  ~ You should have received a copy of the GNU General Public License along with this program.  If not, see <http://www.gnu.org/licenses/>.
  -->
<svg
	width="60"
	height="60"
	viewBox="0 0 60 60"
	xmlns="http://www.w3.org/2000/svg">
<path
	d="m 33.805949,21.316 3.853132,-6.365404 1.694671,0.943353 -3.959984,6.441224 z"
	style="fill:#ffffff" />
<path
	d="m 28.113872,13.076012 h 1.881547 v 7.526186 h -1.881547 z"
	style="fill:#ffffff" />
<path
	d="m 18.627984,15.896666 1.749306,-0.954025 3.894037,6.346682 -1.565017,0.988784 z"
	style="fill:#ffffff" />
<ellipse
	style="fill:none;stroke:#ffffff;stroke-width:2"
	cx="46.87476"
	cy="35.72047"
	rx="2.8209703"
	ry="2.8209698" />
<path
	d="m 7.353876,24.342208 v 5.845211 l 18.875195,3.977997 0.04059,-9.8638 z"
	style="fill:#ffffff" />
<path
	style="fill:#ffffff"
	d="m 45.125681,35.738884 c 0,6.226986 -5.093402,11.274955 -11.376433,11.274955 -6.283031,0 -11.376435,-5.047968 -11.376435,-11.274955 0,-3.113493 0.434145,-7.914024 3.33208,-7.972598 l 6.144117,-0.03169 -7.11e-4,-3.302094 2.530105,-0.0092 c 1.570748,-0.0057 1.666424,-0.497977 3.08833,0.03684 0.691529,0.260105 2.037553,1.570758 2.642792,1.974982 4.522503,3.020468 5.048498,9.299573 5.016137,9.303721 l 9e-6,-10e-7 z" />
<path
	style="fill:#ffffff"
	d="M 54.825967,7.0297458 44.248884,17.508836 c -1.269079,1.257321 -3.176989,-0.308559 -1.865397,-1.634928 L 52.664457,5.4771099 c 0.226941,-0.2295004 2.55119,1.1665656 2.16151,1.5526359 z" />
<path
	style="fill:#ffffff"
	d="M 5.1710495,53.004118 15.72347,42.500193 c 1.26612,-1.260304 3.177706,0.301087 1.869235,1.630539 L 7.3362043,54.551669 C 7.1098032,54.781699 4.7822784,53.3911 5.1710495,53.004118 Z" />
<path
	style="fill:none;stroke:#ffffff;stroke-width:2.66676"
	d="M 47.666715,42.816835 C 42.40927,48.900331 35.028213,53.222041 27.504506,56.058148 21.070022,58.483667 9.291267,58.603236 5.8214973,54.993262 0.78600933,49.754299 2.2139716,40.354399 3.8763382,33.280547 5.6934871,25.54805 10.495566,18.344261 16.351471,12.977521 21.665825,8.1070946 28.592407,4.5504655 35.692073,3.3022026 41.85967,2.2178158 49.833795,1.1372638 54.352911,5.4723239 58.527486,9.4768757 57.874673,16.883411 57.072209,22.612247 56.04168,29.96926 52.524212,37.196127 47.666715,42.816835 Z" />
</svg>
