<!--
  ~ Copyright 2020-2025 Bart Vullings <dev@windkracht8.com>
  ~ This file is part of RugbyRefereeWatch
  ~ RugbyRefereeWatch is free software: you can redistribute it and/or modify it under the terms of the GNU General Public License as published by the Free Software Foundation, either version 3 of the License, or (at your option) any later version.
  ~ RugbyRefereeWatch is distributed in the hope that it will be useful, but WITHOUT ANY WARRANTY; without even the implied warranty of MERCHANTABILITY or FITNESS FOR A PARTICULAR PURPOSE.  See the GNU General Public License for more details.
  ~ You should have received a copy of the GNU General Public License along with this program.  If not, see <http://www.gnu.org/licenses/>.
  -->
<svg
	width="80"
	height="80"
	viewBox="0 0 80 80"
	xmlns="http://www.w3.org/2000/svg">
<path
	style="fill:#2bd2e3"
	d="m 35.625701,35.573207 -23.385513,-22.96633 2.231931,-2.24939 c 1.48995,-1.5015871 7.634566,1.667896 9.518256,0.639542 1.883869,-1.0284361 3.884311,-1.8810471 5.981485,-2.5336051 2.097179,-0.652555 4.279612,-7.447328 6.561943,-7.447333 l 3.348244,5e-6 0.139729,32.7399431 z" />
<path
	style="fill:#2bd2e3"
	d="m 35.669243,35.527761 -1.817155,4.396074 -32.8367561,0.351162 -0.01532,-3.171777 c -0.01022,-2.117344 6.567589,-4.216841 7.169883,-6.277342 0.602363,-2.060686 1.411324,-4.079239 2.4300131,-6.024466 1.018694,-1.945228 -2.2456141,-8.30216 -0.6348241,-9.916016 l 2.3630821,-2.367565 z" />
<path
	style="fill:#2bd2e3"
	d="M 35.668724,44.165385 12.605571,67.761265 10.35623,65.52944 c -1.5015541,-1.489881 1.667857,-7.634206 0.639527,-9.517808 -1.0284131,-1.883778 -1.8810051,-3.884119 -2.5335491,-5.9812 -0.65254,-2.097076 -7.447162,-4.279407 -7.447166,-6.561623 l 4e-6,-3.348089 32.8365501,-0.351192 z" />
<path
	style="fill:#2bd2e3"
	d="m 35.624355,44.116867 4.395994,1.821949 0.253643,33.04677 -3.171727,0.0154 c -2.117308,0.0102 -4.216769,-6.567426 -6.27723,-7.169712 -2.060651,-0.602348 -4.079166,-1.411284 -6.024356,-2.429948 -1.945199,-1.018669 -8.30202,2.245557 -9.91584,0.634809 l -2.367525,-2.363059 z" />
<path
	style="fill:#2bd2e3"
	d="m 44.260995,44.122057 23.498777,23.273464 -2.231858,2.249309 c -1.489909,1.501531 -7.63435,-1.667833 -9.517985,-0.639527 -1.883811,1.02841 -3.884191,1.880991 -5.981301,2.533518 -2.09712,0.652531 -4.279489,7.447055 -6.561749,7.447055 h -3.34815 L 39.86505,45.939158 Z" />
<path
	style="fill:#2bd2e3"
	d="m 44.218102,44.1658 1.817109,-4.395982 32.949409,-0.04284 0.0154,3.171721 c 0.0102,2.117305 -6.567418,4.216768 -7.1697,6.277222 -0.602343,2.060649 -1.41128,4.07917 -2.429945,6.024351 -1.018671,1.945203 2.245558,8.302007 0.63481,9.915831 l -2.363026,2.367522 z" />
<path
	style="fill:#2bd2e3"
	d="m 44.218102,35.529673 23.176357,-23.288967 2.24931,2.231938 c 1.501549,1.489947 -1.667845,7.634532 -0.639522,9.518213 1.028412,1.883862 1.880999,3.884293 2.533541,5.981461 0.652538,2.097171 7.447132,4.279596 7.447132,6.56191 v 3.348244 l -32.949698,0.04326 z" />
<path
	style="fill:#2bd2e3"
	d="M 39.866077,33.756042 39.725449,1.0153219 42.89723,1.0000119 c 2.117349,-0.01022 4.216846,6.567624 6.277348,7.169924 2.060689,0.602362 4.079248,1.411326 6.024468,2.4300271 1.945235,1.018699 8.302181,-2.2456271 9.916023,-0.6348331 l 2.367577,2.3631051 -23.220499,23.244971 z" />
</svg>
