<!--
  ~ Copyright 2020-2025 Bart Vullings <dev@windkracht8.com>
  ~ This file is part of RugbyRefereeWatch
  ~ RugbyRefereeWatch is free software: you can redistribute it and/or modify it under the terms of the GNU General Public License as published by the Free Software Foundation, either version 3 of the License, or (at your option) any later version.
  ~ RugbyRefereeWatch is distributed in the hope that it will be useful, but WITHOUT ANY WARRANTY; without even the implied warranty of MERCHANTABILITY or FITNESS FOR A PARTICULAR PURPOSE.  See the GNU General Public License for more details.
  ~ You should have received a copy of the GNU General Public License along with this program.  If not, see <http://www.gnu.org/licenses/>.
  -->
<svg
	width="80"
	height="80"
	viewBox="0 0 80 80"
	xmlns="http://www.w3.org/2000/svg">
<circle
	style="fill:none;stroke:#2bd2e3;stroke-width:2.59019"
	cx="39.945663"
	cy="39.852936"
	r="15.541174" />
<path
	style="fill:none;stroke:#2bd2e3;stroke-width:2.64461"
	d="m 13.234278,13.50235 2.145859,-2.166577 c 1.432587,-1.4464113 7.340381,1.606657 9.151487,0.616063 1.81128,-0.990684 3.734637,-1.811992 5.751002,-2.4405893 2.01637,-0.6286011 4.114708,-7.1739151 6.309085,-7.1739187 l 3.219244,3.6e-6" />
<path
	style="fill:none;stroke:#2bd2e3;stroke-width:2.64461"
	d="M 2.33697,40.189516 2.32232,37.140162 c -0.00978,-2.035758 6.3265113,-4.054354 6.9067006,-6.035456 0.5802487,-1.981286 1.3595134,-3.922058 2.3408154,-5.79233 0.9813,-1.870277 -2.1631855,-7.982263 -0.611526,-9.533924 l 2.276348,-2.276345" />
<path
	style="fill:none;stroke:#2bd2e3;stroke-width:2.64461"
	d="M 13.501835,66.76608 11.33525,64.620227 C 9.8888284,63.187652 12.941905,57.279846 11.951318,55.46874 10.96063,53.657463 10.139321,51.73411 9.5107266,49.717736 8.8821229,47.701373 2.3368121,45.60303 2.3368074,43.408652 v -3.21924" />
<path
	style="fill:none;stroke:#2bd2e3;stroke-width:2.64461"
	d="m 40.18899,77.663534 -3.049346,0.01466 c -2.035759,0.0098 -4.054356,-6.326511 -6.035458,-6.906699 -1.981285,-0.580251 -3.922056,-1.359511 -5.792335,-2.340817 -1.87027,-0.9813 -7.982255,2.163181 -9.533918,0.611525 L 13.501586,66.76585" />
<path
	style="fill:none;stroke:#2bd2e3;stroke-width:2.64461"
	d="m 66.765567,66.498543 -2.145847,2.16658 c -1.43258,1.446422 -7.340382,-1.606657 -9.151488,-0.616063 -1.811282,0.990677 -3.734637,1.811993 -5.751006,2.440592 -2.016374,0.628599 -4.114707,7.173914 -6.309084,7.17392 l -3.21925,-6e-6" />
<path
	style="fill:none;stroke:#2bd2e3;stroke-width:2.64461"
	d="m 77.663012,39.810723 0.01466,3.049351 c 0.0098,2.035754 -6.326511,4.054356 -6.906695,6.035452 -0.580255,1.981287 -1.359515,3.922056 -2.340816,5.792332 -0.981306,1.870277 2.163186,7.982263 0.61153,9.533924 l -2.276357,2.276347" />
<path
	style="fill:none;stroke:#2bd2e3;stroke-width:2.64461"
	d="m 66.498026,13.234281 2.166573,2.145856 c 1.446413,1.432587 -1.606656,7.340381 -0.616062,9.151487 0.990683,1.81128 1.811992,3.734635 2.440591,5.751003 0.628599,2.016369 7.173915,4.114708 7.17392,6.309085 l -5e-6,3.219247" />
<path
	style="fill:none;stroke:#2bd2e3;stroke-width:2.64461"
	d="m 39.810667,2.33697 3.049354,-0.01465 c 2.035759,-0.00978 4.054355,6.3265118 6.035455,6.9067011 1.981287,0.5802485 3.922059,1.3595139 5.79233,2.3408159 1.870277,0.9813 7.982263,-2.163186 9.533924,-0.611527 l 2.276347,2.276348" />
</svg>
